<?xml version="1.0" encoding="UTF-8"?>
<svg xmlns="http://www.w3.org/2000/svg" version="1.1" viewBox="0 0 399.527 133.366">
  <defs>
    <style>
      .cls-1, .cls-2 {
        fill-rule: evenodd;
      }

      .cls-2 {
        fill: #e82934;
      }
    </style>
  </defs>
  <!-- Generator: Adobe Illustrator 28.6.0, SVG Export Plug-In . SVG Version: 1.2.0 Build 709)  -->
  <g>
    <g id="Layer_1">
      <g id="Redback-List">
        <g id="Redback">
          <path id="Shape" d="M21.473,16.504c12.977,0,17.481,3.992,17.481,11.985,0,4.489-1.527,7.985-3.992,9.985-2.496,2.496-6.496,3.496-13.985,3.496h-6.992v-25.466h7.489ZM58.466,86.45l-12.519-19.511c-4.496-6.992-10.489-14.504-13.481-15.977,13.481,0,21.473-10.992,21.473-22.473,0-12.489-8.992-22.977-27.969-22.977H.015v80.939h13.969v-34.962c2.496,0,3.992,1,5.496,2.496,4.489,4.496,8.489,9.992,14.504,19.977l7.466,12.489h17.015Z"/>
          <path id="Shape-2" data-name="Shape" d="M96.885,50.962h-22.969c0-9.489,3.992-15.481,11.985-15.481,6.489,0,10.985,5.992,10.985,15.481ZM110.87,60.45v-3.008c0-13.481-2.496-20.977-7.992-25.466-4.733-4.01-10.775-6.143-16.977-5.992-7.992,0-13.985,2.496-18.977,7.985-5.496,5.496-7.992,12.489-7.992,22.977,0,18.977,10.985,30.962,28.466,30.962,8.489,0,15.977-2.496,22.473-7.992l-4.992-7.969c-5,4-9.992,5.992-15.481,5.992-12.489,0-15.481-8.489-15.481-16.977v-.496l36.954-.015Z"/>
          <path id="Shape-3" data-name="Shape" class="cls-2" d="M187.779,41.473c3-3.496,6.992-5,11.489-5,8.527,0,12.481,6.466,12.481,20.969,0,12.977-2.992,19.481-12.977,19.481-4.992,0-8.985-3-10.985-5.496v-29.954h-.008ZM184.786,86.45c.496-1.527.992-2,.992-4.496,4.496,3.992,9.489,5.489,15.481,5.489,15.985,0,25.473-11.45,25.473-29.962s-10.985-31.458-25.954-31.458c-4.992,0-9.489,1.992-13.481,5.489,0,0,.496-4.496.496-9.489V.519l-13.481,1.527v84.405h10.473Z"/>
          <path id="Shape-4" data-name="Shape" d="M158.809,71.435c-1.992,2.496-5.992,5.496-10.985,5.496-9.985,0-12.977-6.496-12.977-19.481,0-14.504,3.992-20.977,12.489-20.977,4.489,0,8.489,1.527,11.45,5v29.962h.023ZM172.298,86.45V2.015l-13.489-1.527v21.504c0,4.992.504,9.489.504,9.489-4-3.496-8.489-5.489-13.489-5.489-14.977,0-25.954,12.977-25.954,31.458s9.489,29.962,25.473,29.962c5.992,0,10.985-1.527,15.481-5.489,0,2.496.496,2.992,1,4.496l10.473.031Z"/>
          <path id="Shape-5" data-name="Shape" class="cls-2" d="M267.183,58.45l-.504,13.985c-2.496,3.496-6.992,5.992-10.985,5.992-5.496,0-8.985-3.496-8.985-8.992,0-7.489,4.489-10.985,17.977-10.985h2.496ZM285.656,80.427c-4.992-3-5.489-5.496-5.489-13.489v-16.977c.496-8.992.496-11.985-.504-14.504-2.992-6.496-9.489-9.992-18.977-9.992s-17.489,2.519-26.466,8.015l5.992,9.458s9.489-6.992,18.481-6.992c7.489,0,8.489,3.496,8.489,10.489v2.992h-4c-19.969,0-30.962,6.992-30.962,20.481,0,10.489,6.496,17.977,20.977,17.977,6.489,0,11.985-2,16.977-7.489,1.527,3.992,4.496,6.985,8.496,7.985l6.985-7.985v.031Z"/>
          <path id="Path" class="cls-2" d="M317.122,87.412c-16.977,0-26.466-10.985-26.466-29.962,0-21.473,13.977-31.962,27.481-31.962,6.992,0,11.985,1.527,17.481,6.496l-6.992,8.489c-3.496-3-6.496-4.496-10.489-4.496-4.071-.059-7.792,2.292-9.489,5.992-2,3.496-2.496,8.992-2.496,16.481,0,7.992,1,12.977,3.992,15.985,2.121,2.141,4.981,3.389,7.992,3.489,4.496,0,8.489-1.992,12.977-5.992l5.977,7.992c-5.496,5.496-11.489,7.489-19.977,7.489h.008Z"/>
          <path id="Shape-6" data-name="Shape" class="cls-2" d="M381.542,85.916l-23.466-32.962,18.473-25.954h16.481l-21.473,24.977,26.466,33.954-16.481-.015ZM343.588,85.916V17.496c.069-4.878-.444-9.747-1.527-14.504l13.985-2.992c.665,5.134.999,10.305,1,15.481v70.435h-13.458Z"/>
          <path id="Combined-Shape" class="cls-1" d="M0,93.412h399.527v39.954H0v-39.954ZM378.046,124.87h.008c6,0,8.992-3.496,8.992-6.992s-2.496-5.489-5.496-6.489l-2.992-.504c-2-1-3-1.519-3-2.992s1.504-3,4-3c1.496,0,2.992.473,5.489,2l1.527-3c-2.307-1.245-4.875-1.928-7.496-1.992-4.489,0-7.985,2.992-7.985,6.489.029,1.231.371,2.434.992,3.496,1.246,1.223,2.799,2.086,4.496,2.496l2.496.504c2.496,1,3.496,1.969,3.496,3.496,0,1.969-1.496,3.496-4.496,3.496-2.177.104-4.314-.609-5.992-2l-1.527,2.992c2,1.504,4.992,2,7.489,2ZM338.618,102.397l-5.015.015-7.489,10.489,7.489,11.489h5.496l-8.992-11.985,8.511-10.008ZM322.137,102.397v21.977h4v-21.977h-4ZM277.672,105.397c3.496,0,4.489.992,4.489,3.496,0,.992,0,1.992-.992,2.496-.504.496-1.527,1-3.496,1h-2v-6.992h2ZM287.656,124.374l-3.496-5c-1-1.992-2.496-3.992-3.496-4.489,3.284-.061,5.931-2.708,5.992-5.992,0-3.496-2.496-6.496-7.985-6.496h-6.992v21.977h3.992v-9.489c.496,0,1,.496,1.527.496,1,1.527,2,3,4,5.496l1.992,3.496h4.466ZM227.229,121.878c-3.992,0-5.496-3-5.496-8.496s1.527-8.489,5-8.489c4.489,0,5.489,3.496,5.489,8.992s-1.527,7.992-4.992,7.992ZM227.229,124.87c5.992,0,9.489-4.496,9.489-11.489,0-6.489-2.992-11.45-9.985-11.45-5.496,0-9.489,3.992-9.489,11.45,0,6.496,2.992,11.489,9.985,11.489ZM179.786,124.374h.061l5.496-21.977h-4l-1.992,9.992c-.527,2.496-1.527,6.985-1.527,6.985-.31-2.043-.822-4.05-1.527-5.992l-2-10.985h-4.489l-2.504,10.489c-.527,2.496-1.527,6.992-1.527,6.992l-1-6.992-2.496-10.489h-3.962l5.489,21.977h4.458l2.496-9.992c.504-2.992,1-6.489,1-6.489,0,0,.504,2.992,1,6.489l2.496,9.992h4.527ZM126.351,105.397l.496-2.992h-16.481v2.992h5.992v18.977h4v-18.977h5.992ZM64.42,124.374h13.489v-3h-9.489v-6.985h7.489v-3h-7.489v-5.992h8.489l.496-2.992h-12.985v21.969ZM23.969,124.374h4v-21.977h-3.496v16.481c0-1-.969-3.496-2.496-5.496l-5.496-10.985h-4.496v21.977h4v-10.489c.083-2.178-.086-4.357-.504-6.496.504,1.504,2,4,3,6.496l5.489,10.489Z"/>
        </g>
      </g>
    </g>
  </g>
</svg>